PathFileType	4	(X/Y/Z)	T1_P1_Vision_NoMovement_2_0-682.trc
DataRate	CameraRate	NumFrames	NumMarkers	Units	OrigDataRate	OrigDataStartFrame	OrigNumFrames
60	60	4	27	m	60	511	682
Frame#	Time	RHip			RKnee			RAnkle			RBigToe			RSmallToe			RHeel			LHip			LKnee			LAnkle			LBigToe			LSmallToe			LHeel			Neck			Head			Nose			RShoulder			RElbow			RWrist			RThumb			RIndex			RPinky			LShoulder			LElbow			LWrist			LThumb			LIndex			LPinky		
		X1	Y1	Z1	X2	Y2	Z2	X3	Y3	Z3	X4	Y4	Z4	X5	Y5	Z5	X6	Y6	Z6	X7	Y7	Z7	X8	Y8	Z8	X9	Y9	Z9	X10	Y10	Z10	X11	Y11	Z11	X12	Y12	Z12	X13	Y13	Z13	X14	Y14	Z14	X15	Y15	Z15	X16	Y16	Z16	X17	Y17	Z17	X18	Y18	Z18	X19	Y19	Z19	X20	Y20	Z20	X21	Y21	Z21	X22	Y22	Z22	X23	Y23	Z23	X24	Y24	Z24	X25	Y25	Z25	X26	Y26	Z26	X27	Y27	Z27
512	8.533333333333333	-66.35782551086179	3790.033453718812	-546.8320431945448	285.48297255490166	3966.8369545933815	-520.4097872513263	639.6966909107609	4153.3455760991	-532.084260374085	691.232400751642	4011.366590041487	-456.500765812085	688.5276896477984	3967.2533976121495	-496.90439736490794	681.6582334688795	4198.269679871066	-532.7185725691065	-108.07168405500813	3882.717548579116	-348.9005043592066	234.29782146233546	3986.7098810226767	-360.81462413094033	620.7889113318954	4246.993954993866	-448.1913013495607	666.2644557228831	3995.845751460761	-345.97522325889605	672.9655865986275	4120.397845505345	-343.0019788379448	671.6625526155991	4313.938229194585	-492.0324309999172	-669.3991543494402	3696.0154198844266	-508.53951085859234	-912.0756071683768	3541.233797075174	-432.3844772828902	-763.7311906443844	3558.0400367602206	-404.1524236297781	-560.1309918658665	3670.002346295545	-665.7165664370401	-287.43770892904774	3666.8301581815776	-681.9187497203948	-27.624204021093764	3626.9328465229146	-595.4900795462356	82.44788901212337	3764.896612837119	-567.8792212711614	104.22731125003631	3742.65704883463	-562.3377326972054	99.6962395764867	3707.201326188378	-582.9225421088652	-607.2137890786892	3777.1079607265983	-371.33975659245556	-392.1893973132297	3979.825876040873	-344.702623611568	-133.15232583637274	3963.1153604610345	-245.10640881288856	3.11328791703341	3855.30059069319	-240.45824423398625	20.211464372654255	3895.40176079237	-205.70384803030754	0.025872136966927722	3977.814447338956	-215.91621869298953
513	8.55	-66.37585917469859	3789.754942608739	-546.6247222530952	287.7191846647896	3967.575660313487	-521.2663996124693	639.0543612058539	4154.0523154915445	-532.4714013490268	693.1532429543062	4012.2681190203907	-456.753921512821	688.0765314843901	3969.8515018184835	-498.1697706247097	681.6779915955098	4198.667651527575	-532.6293541975049	-108.199548066945	3882.4613666539535	-348.7651723815734	234.19607345912792	3981.396847678641	-357.1768515098611	620.6780220498356	4243.432825489144	-447.51645300824384	665.5607203442146	3995.3416951872223	-346.449950625363	673.5301668844457	4120.257519961862	-343.3037595237157	670.9483011736479	4307.199481042413	-488.11658907541363	-667.868912439989	3693.5205109455705	-506.27483749594046	-912.086742318526	3541.2377423057915	-432.39297014913615	-763.787015205448	3558.078101819864	-404.17847934327904	-560.1430921748823	3670.0733026593985	-665.7736864435549	-287.4618867517328	3666.908066633264	-682.0056500745909	-27.492943663042148	3628.9615592976597	-597.5576644771113	82.108056795495	3760.745811877198	-566.9280117260978	104.420120194064	3738.2884570043293	-561.1843342223444	98.95354562370788	3710.2116753058895	-583.8567049503691	-607.2370891186445	3777.4234820447336	-371.532326492171	-391.61917438033174	3980.204280491511	-344.8305238018991	-133.14033557174554	3962.9893990073424	-245.06267127507977	2.7430962483104055	3843.412719496886	-236.5276778214061	20.115494467594303	3891.6630669955302	-205.07329634340442	0.8190244096612153	3978.3255057972738	-216.15742990850228
514	8.566666666666666	-66.4661126813805	3787.7847757014606	-545.1094141137825	288.69429368096274	3962.4709176637857	-519.2463146929712	638.9179162720046	4153.911736815108	-532.4951900128782	695.9320151389488	4014.491507124871	-456.9495739334413	687.8549886108383	3971.198663555133	-499.0658679861588	681.7799570842288	4198.157054193913	-532.5999122175574	-108.2023754956983	3882.3138134967003	-348.68703387259075	235.03170946986822	3979.8319748895374	-355.9404228989268	620.2427220265297	4239.259099705945	-445.6386626621719	666.0867813971514	3995.3863390519423	-346.98068682631424	674.6048646931282	4121.438605441581	-343.5188743428731	670.7737674479462	4301.391888837328	-483.8720821620941	-666.6863902933927	3692.9487607348265	-505.5891646347003	-912.0993375199529	3541.201174284234	-432.39610387119944	-763.8165639371267	3558.0910636431618	-404.20197190545707	-560.1530958967685	3670.1515139790918	-665.8341513968749	-287.47183117983303	3667.037256561062	-682.0921494363193	-27.418475190438137	3630.381435584116	-598.7273582698301	82.84305519576301	3758.9140080753546	-566.3271430509926	105.57375086326306	3736.346188383999	-560.6837712674447	98.86387332666014	3717.7434363345146	-585.9067412728698	-607.2838958755468	3777.856422312959	-371.8379990568706	-391.1429210935281	3980.853429355951	-345.2441816185997	-133.14727263110933	3962.9757559138375	-245.02410998460778	2.6623200691007165	3833.5464025322667	-234.72921644793914	20.029172625457928	3884.6364377880313	-203.911342416372	1.2569570460368387	3978.409684588595	-216.2437592610949
515	8.583333333333334	-66.65229388135748	3782.956687615016	-541.3888893081154	287.74651909754067	3951.6396222520566	-515.4928900135862	639.0800941879263	4153.573244268614	-532.329919783894	698.4345334296459	4019.498503255496	-457.69319504179583	687.8947799129909	3969.9055616427404	-498.04918859883975	682.3043023928033	4197.5967482697615	-532.8779839602831	-107.65974223867521	3882.617342680649	-348.7901913390134	235.645034723691	3980.2026878000033	-356.0517813658322	619.4115794182796	4234.782406063272	-442.51026979790896	667.169652693195	3995.8965263886157	-347.2433561173956	675.7728674939449	4125.7212378311915	-344.10300779905	670.6113560592532	4298.590252771508	-481.27788837902995	-666.8880802221054	3694.5140015924108	-506.8547908908833	-912.101035280127	3541.172235320582	-432.41528727652184	-763.8845229891247	3558.0596410292997	-404.221197888147	-560.1526206493941	3670.175671258994	-665.8510811275758	-287.4546136635476	3667.0203071947126	-682.0695053646807	-27.492240840918214	3631.7179714517392	-598.2907595970445	84.49266712517046	3761.6890555395244	-566.6954444491239	107.41822373303637	3739.190290306118	-561.4089201583876	99.98826438547421	3727.657438371387	-588.6478135604782	-607.2820939807626	3777.8037482525087	-371.80513895170054	-390.47465110877494	3981.7431450642916	-345.7858357594472	-133.15219730119355	3963.2881606964984	-245.03957129238367	2.748343569956238	3830.386085690032	-234.69362874832285	20.022283111869854	3878.622760680647	-202.904616627589	1.507549021570553	3978.3210015448462	-216.25944859314615
